<svg width="100%" height="100%">
<g>
  <line id="svg_2" y2="21" x2="524" y1="23" x1="142" stroke-width="5" stroke="#000000" fill="none"/>
  <line id="svg_4" y2="112" x2="522" y1="114" x1="149" stroke-linecap="null" stroke-linejoin="null" stroke-dasharray="null" stroke-width="5" stroke="#000000" fill="none"/>
  <line id="svg_5" y2="131.142883" x2="331.285736" y1="132.142883" x1="331.285736" stroke-linecap="null" stroke-linejoin="null" stroke-dasharray="null" stroke-width="5" stroke="#000000" fill="none"/>
  <line id="svg_6" y2="210.428589" x2="463.285736" y1="210.428589" x1="462.285736" stroke-linecap="null" stroke-linejoin="null" stroke-dasharray="null" stroke-width="5" stroke="#000000" fill="none"/>
  <path d="m144.285736,21.428589c-1,0 -1.660187,0.018896 -2.366669,0.072001c-0.538467,0.040476 -1.226868,0.096378 -3.133331,0.261333c-1.250137,0.108168 -2.68013,0.23591 -4.259995,0.380999c-1.70015,0.156136 -3.49025,0.324854 -5.340012,0.507c-1.880249,0.185148 -3.761574,0.367113 -7.399994,0.778667c-1.706268,0.193001 -3.32428,0.39514 -4.858498,0.591c-1.453766,0.185589 -2.828827,0.36869 -4.129501,0.537001c-1.228333,0.158949 -2.385925,0.320738 -4.512001,0.538666c-0.969299,0.099356 -1.881081,0.167749 -2.734497,0.223501c-0.795952,0.051996 -1.536362,0.088568 -2.221504,0.1245c-0.631187,0.033102 -1.211426,0.046 -2.210663,0.151999c-0.426933,0.045288 -0.807907,0.111471 -1.147499,0.186001c-0.307045,0.067387 -0.582268,0.145372 -0.832504,0.222c-0.2314,0.070858 -0.443451,0.153114 -0.853333,0.258667c-0.201256,0.051826 -0.421303,0.088173 -0.671997,0.132c-0.29863,0.052208 -0.661911,0.115099 -1.104004,0.203999c-0.539391,0.108465 -1.192284,0.243877 -2.890663,0.664001c-1.079269,0.266975 -2.300247,0.591593 -3.648003,0.966c-1.463074,0.406443 -3.021172,0.859135 -4.655998,1.362c-1.703979,0.524136 -3.463806,1.063969 -7.029335,2.338667c-1.805519,0.645485 -3.594185,1.34269 -5.363998,2.067001c-1.755569,0.718483 -3.474648,1.462955 -5.148003,2.229c-1.635941,0.748917 -3.225571,1.483879 -6.154667,3.037331c-1.371048,0.727139 -2.656693,1.471287 -3.875999,2.209503c-1.175224,0.711529 -2.294674,1.430264 -3.371998,2.1465c-1.053288,0.700256 -2.076153,1.407204 -4.085335,2.810665c-0.999405,0.698109 -1.98978,1.3927 -2.964001,2.077499c-0.951099,0.668549 -1.870354,1.316898 -2.748001,1.942501c-0.831635,0.592808 -1.612659,1.143456 -2.954666,2.146667c-0.564777,0.422195 -1.05732,0.805809 -1.485001,1.160999c-0.385307,0.32 -0.727776,0.626057 -1.035,0.926998c-0.296013,0.289959 -0.579193,0.58955 -1.146664,1.245335c-0.312424,0.361046 -0.634052,0.750072 -0.967503,1.1535c-0.339897,0.411228 -0.678391,0.825623 -1.012497,1.234501c-0.324226,0.396786 -0.630581,0.776947 -1.186668,1.445332c-0.234177,0.281467 -0.441727,0.524818 -0.624001,0.733501c-0.156528,0.179207 -0.29195,0.329662 -0.408001,0.454498c-0.096737,0.104057 -0.17934,0.187336 -0.301331,0.312c-0.045586,0.046585 -0.087666,0.092308 -0.114002,0.154503c-0.034012,0.080322 -0.055134,0.199299 -0.077999,0.3615c-0.030647,0.217388 -0.059174,0.502617 -0.141335,1.317333c-0.055344,0.548798 -0.119171,1.190746 -0.195,1.918499c-0.08408,0.806931 -0.178352,1.685852 -0.285,2.629501c-0.113247,1.002029 -0.231697,2.055725 -0.52,4.285332c-0.150501,1.163895 -0.315239,2.34716 -0.490499,3.540001c-0.175407,1.19384 -0.359224,2.377396 -0.553499,3.540001c-0.189505,1.134064 -0.369812,2.230873 -0.789333,4.253334c-0.19039,0.917839 -0.393282,1.768021 -0.595501,2.557495c-0.188814,0.737137 -0.380949,1.422462 -0.568499,2.0625c-0.176283,0.601593 -0.354704,1.165451 -0.669334,2.213333c-0.147055,0.489769 -0.282804,0.962257 -0.4095,1.418999c-0.122591,0.44194 -0.23724,0.872437 -0.346498,1.293007c-0.107058,0.412102 -0.209648,0.818588 -0.410667,1.62133c-0.099989,0.399292 -0.198668,0.79467 -0.2955,1.181999c-0.093834,0.375336 -0.183666,0.734665 -0.268499,1.073997c-0.078835,0.315338 -0.150667,0.602669 -0.269335,1.077339c-0.045166,0.180664 -0.081333,0.325333 -0.109499,0.437996c-0.021168,0.084671 -0.036333,0.145332 -0.046501,0.186005c-0.006166,0.024666 -0.009483,0.037292 -0.010666,0.042664c-0.000767,0.003479 -0.005333,0.028 -0.083334,0.4375c-0.145334,0.763 -0.258186,1.354462 -0.583332,3.0625c-0.219294,1.151978 -0.475176,2.495659 -0.7575,4.014c-0.311199,1.67363 -0.642097,3.485336 -0.9825,5.417999c-0.35813,2.03331 -0.733461,4.148796 -1.426668,8.568001c-0.354809,2.261902 -0.685526,4.546707 -0.991499,6.844498c-0.306034,2.298248 -0.583689,4.591644 -0.820499,6.871506c-0.234047,2.253235 -0.465715,4.472885 -0.688002,8.783997c-0.106611,2.067657 -0.139366,4.070602 -0.1425,5.998505c-0.003002,1.846848 0.031572,3.605865 0.0825,5.269501c0.047819,1.562042 0.116985,3.014511 0.226667,5.565323c0.046722,1.086609 0.083431,2.053284 0.109499,2.910004c0.023022,0.756607 0.037916,1.423309 0.046501,2.009995c0.007561,0.516663 0.009998,0.973343 0.010666,1.746674c0.00029,0.335327 0,0.64267 0,0.923996c0,0.257339 0,0.492676 0,0.708008c0,0.197327 0,0.378662 0,0.701324c0,0.148499 0,0.307999 0,0.499512c0,0.244492 0,0.562988 0,0.976486c0,0.52951 0,1.196014 0,3.024002c0,1.194839 0,2.55867 0,4.060501c0,1.608841 0,3.293671 0,5.023499c0,1.743835 -0.000181,3.470673 0,6.749344c0.000084,1.497162 -0.000343,2.897324 0.004499,4.213501c0.004581,1.245163 0.013029,2.432373 0.0315,3.574493c0.017956,1.110229 0.036364,2.201859 0.130667,4.378662c0.048058,1.109314 0.115406,2.232132 0.186001,3.363007c0.070734,1.133118 0.147804,2.261963 0.222,3.380997c0.07313,1.102966 0.152203,2.183426 0.258667,4.255997c0.050303,0.979263 0.084213,1.915909 0.109499,2.806503c0.02389,0.841431 0.038069,1.630981 0.046501,2.365509c0.007765,0.676483 0.009998,1.291992 0.010666,2.327988c0.000267,0.416 0,0.768005 0,1.062012c0,0.241989 0,0.437988 0,0.593994c0,0.121994 -0.000221,0.216003 0,0.343994c0.000084,0.048172 0.000931,0.105347 0.004499,0.190506c0.005541,0.132202 0.016178,0.330353 0.0315,0.613495c0.020952,0.387192 0.049282,0.897339 0.130667,2.362671c0.0548,0.986664 0.11853,2.133347 0.1905,3.419998c0.078684,1.406677 0.163378,2.913345 0.2535,4.5c0.093533,1.646683 0.189089,3.33342 0.389334,6.746674c0.099052,1.68837 0.198671,3.346664 0.2955,4.964996c0.093838,1.568329 0.184341,3.076614 0.268499,4.514999c0.079472,1.358307 0.156586,2.626358 0.269335,4.853333c0.047668,0.941544 0.083345,1.773254 0.109499,2.505005c0.022932,0.641602 0.037905,1.203308 0.046501,1.695007c0.007545,0.43161 0.009813,0.813324 0.010666,1.466644c0.00038,0.290344 -0.000343,0.562714 0.004499,0.819c0.00458,0.242371 0.012959,0.472931 0.0315,0.693024c0.017912,0.212616 0.035746,0.421631 0.130667,0.82132c0.047869,0.201569 0.11508,0.399475 0.186001,0.59549c0.070436,0.194672 0.147333,0.383667 0.222,0.568512l0.072666,0.178833l0.068666,0.171844" id="svg_7" stroke-linecap="null" stroke-linejoin="null" stroke-dasharray="null" stroke-width="5" stroke="#000000" fill="none"/>
  <path d="m523.285767,21.428589c0.646606,-1.563999 1.336548,-1.911245 2.039612,-1.875334c0.705688,0.036045 1.752991,0.201969 3.231018,0.426001c1.994385,0.302299 4.585449,0.721828 11.895996,1.949333c4.84967,0.814306 10.389282,1.76177 16.463989,2.7945c6.450623,1.096632 13.118774,2.230021 19.848022,3.3615c6.630066,1.114799 12.999695,2.204308 24.354675,4.010668c4.69342,0.746632 8.723389,1.351246 12.153015,1.828499c2.888062,0.40189 5.303772,0.705963 7.310974,0.919498c1.658508,0.176441 3.036499,0.295578 5.202637,0.418667c0.905579,0.051456 1.726746,0.082615 2.467529,0.1185c0.665894,0.032257 1.262268,0.06197 1.79248,0.109501c0.471436,0.042259 0.899536,0.061333 1.573364,0.271999c0.287842,0.089989 0.53418,0.226799 0.747009,0.376503c0.203247,0.142967 0.379456,0.309498 0.54895,0.475498c0.168518,0.165024 0.320129,0.351566 0.704041,0.647999c0.20166,0.155697 0.432922,0.286095 0.676514,0.405003c0.248474,0.121288 0.509338,0.224796 0.775452,0.314999c0.264954,0.089806 0.529419,0.171867 1.048035,0.279999c0.244385,0.050953 0.483765,0.084579 0.718506,0.114002c0.233215,0.029232 0.469055,0.052116 0.709473,0.077999c0.248596,0.026764 0.509277,0.050362 1.072021,0.141335c0.309937,0.050102 0.633606,0.115929 0.967468,0.185997c0.339478,0.071243 0.678345,0.147217 1.012512,0.222c0.324158,0.072556 0.632324,0.146233 1.186646,0.258667c0.235413,0.047752 0.447266,0.082767 0.637512,0.123001c0.176331,0.037292 0.343872,0.0793 0.502502,0.140999c0.16333,0.063541 0.336121,0.14378 0.693359,0.402668c0.215332,0.156052 0.435852,0.350605 0.671997,0.557999c0.246582,0.216553 0.494019,0.442657 0.744019,0.666c0.244751,0.218647 0.472168,0.437344 0.917297,0.776001c0.185791,0.141365 0.358398,0.248116 0.51001,0.333c0.128723,0.072052 0.241089,0.123272 0.330017,0.171001c0.070923,0.038044 0.147461,0.069263 0.159973,0.162666c0.008118,0.060699 -0.045898,0.162029 -0.103516,0.339001c-0.091553,0.281353 -0.214355,0.701283 -0.364502,1.292999c-0.200623,0.79055 -0.446716,1.8148 -1.031982,4.701332c-0.385742,1.90237 -0.790039,4.078049 -1.22998,6.460499c-0.466858,2.528183 -0.938416,5.143353 -1.410034,7.783501c-0.465088,2.603519 -0.908752,5.110294 -1.693298,9.589336c-0.326599,1.864502 -0.60791,3.476898 -0.843018,4.865997c-0.201843,1.192299 -0.370239,2.216583 -0.500977,3.101997c-0.114014,0.772041 -0.213257,1.459824 -0.322693,2.698669c-0.052856,0.598701 -0.084595,1.194519 -0.109497,1.781998c-0.024414,0.575203 -0.038208,1.134636 -0.046509,1.674004c-0.007935,0.515312 -0.009949,1.002663 -0.01062,1.877335c-0.000305,0.380333 0,0.722664 0,1.028999c0,0.272331 0,0.512665 0,0.723c0,0.182335 0,0.338669 0,0.581329c0,0.0905 0,0.164001 0,0.223503c0,0.0485 0,0.088997 0,0.124496c0,0.033501 0,0.068001 0,0.152c0,0.054832 0,0.118668 0,0.190506c0,0.078827 0,0.163666 0,0.253494c0,0.093834 0.000183,0.190666 0,0.389336c-0.000122,0.099831 0.000244,0.198738 -0.004517,0.295502c-0.004639,0.093925 -0.012756,0.184387 -0.031494,0.268501c-0.017761,0.079666 -0.033691,0.163101 -0.130676,0.269333c-0.048462,0.05307 -0.122192,0.087677 -0.204041,0.127495c-0.096741,0.047043 -0.214111,0.098892 -0.347961,0.172501c-0.15918,0.087563 -0.348999,0.193138 -0.781372,0.533333c-0.270996,0.213226 -0.565308,0.482147 -0.866943,0.820503c-0.342896,0.384689 -0.691895,0.856415 -1.029053,1.4235c-0.380005,0.639168 -0.785645,1.380905 -1.437317,3.255997c-0.382019,1.09922 -0.691895,2.328529 -0.995972,3.640503c-0.317993,1.37204 -0.598328,2.795029 -0.85199,4.2435c-0.253662,1.448616 -0.493103,2.880035 -0.818726,5.615997c-0.149963,1.260017 -0.253296,2.452621 -0.323975,3.584999c-0.067505,1.081085 -0.101624,2.123238 -0.107971,3.135002c-0.006226,0.991653 0.006287,1.973984 0.098633,3.946671c0.047302,1.010056 0.115601,2.037659 0.195007,3.081001c0.080566,1.058014 0.175415,2.127792 0.284973,3.207001c0.110474,1.088135 0.225769,2.183197 0.52002,4.378662c0.147522,1.100479 0.314697,2.196411 0.486023,3.286499c0.170044,1.081909 0.346863,2.151093 0.521973,3.205505c0.17218,1.036575 0.348267,2.050903 0.658691,4.007996c0.148132,0.933807 0.282349,1.834167 0.400513,2.697006c0.112305,0.819855 0.208984,1.594101 0.283447,2.319c0.068787,0.669846 0.144653,1.281937 0.149353,2.317322c0.001892,0.419006 -0.03064,0.797409 -0.139465,1.138504c-0.113403,0.355576 -0.328186,0.723557 -0.616516,1.129501c-0.349243,0.491776 -0.822815,1.054565 -2.077332,2.565338c-0.810913,0.976593 -1.733948,2.087509 -2.722534,3.330002c-1.058594,1.330475 -2.147583,2.74176 -3.217468,4.229996c-1.082092,1.505142 -2.194336,2.992142 -3.893311,6.106659c-0.792908,1.453537 -1.408752,2.90979 -1.905029,4.32901c-0.475891,1.36084 -0.829773,2.707062 -1.094971,4.022995c-0.257446,1.27742 -0.447266,2.535385 -0.666687,4.981339c-0.106628,1.188965 -0.169617,2.362305 -0.214539,3.518997c-0.044312,1.142044 -0.063354,2.272644 -0.061462,3.39299c0.001831,1.112366 0.015015,2.219284 0.109314,4.421341c0.047058,1.099701 0.114746,2.194931 0.190491,3.281998c0.074951,1.075607 0.160645,2.134949 0.25354,3.173996c0.09082,1.01561 0.18335,2.003464 0.389343,3.877335c0.097046,0.882553 0.199524,1.73793 0.313477,2.578506c0.114014,0.84079 0.24353,1.693268 0.39447,2.569504c0.157776,0.916168 0.333923,1.884308 0.791992,4.018661c0.255981,1.192871 0.548767,2.449799 0.853516,3.751495c0.309875,1.323624 0.625977,2.644272 0.934509,3.940506c0.297119,1.248108 0.587036,2.422531 1.045349,4.47467c0.185669,0.83139 0.331116,1.538925 0.437988,2.137497c0.089539,0.501648 0.151245,0.924377 0.185974,1.282501c0.029785,0.307053 0.039917,0.579987 0.042725,1.080002c0.001404,0.254822 -0.000122,0.518677 0.004456,0.790497c0.0047,0.278854 0.013489,0.563828 0.031494,0.8535c0.01825,0.294037 0.035583,0.592712 0.130676,1.189331c0.047913,0.30069 0.114197,0.597137 0.190491,0.886505c0.074524,0.282669 0.158813,0.552765 0.25354,0.805496c0.089294,0.238251 0.168762,0.465118 0.389343,0.807999c0.091125,0.141647 0.194458,0.250122 0.295471,0.332993c0.090332,0.074127 0.183044,0.126511 0.268494,0.171005c0.078308,0.040756 0.163025,0.062378 0.269348,0.162674c0.052124,0.049194 0.086609,0.123795 0.109497,0.212997c0.027771,0.108185 0.038879,0.245193 0.046509,0.410995c0.009216,0.199539 0.01001,0.437332 0.010681,1.042664c0.000427,0.374176 0,0.793335 0,1.252502c0,0.494171 0,1.018341 0,1.567505c0,0.569168 -0.000305,1.153336 0,2.346664c0.000183,0.601837 -0.000061,1.214691 0.008972,1.849503c0.009521,0.667877 0.02832,1.379852 0.062988,2.1465c0.037659,0.833054 0.084656,1.743805 0.261353,3.837326c0.10144,1.201706 0.232544,2.488373 0.376465,3.83699c0.148071,1.38739 0.307983,2.788391 0.475525,4.179016c0.163513,1.357361 0.319153,2.657776 0.64801,4.984009c0.139709,0.988281 0.277466,1.860626 0.409485,2.632477c0.117737,0.68811 0.234314,1.30542 0.346497,1.867523c0.10437,0.522858 0.213928,1.019073 0.410706,2c0.10199,0.508362 0.200134,1.030182 0.290955,1.558502c0.090515,0.526367 0.171936,1.045044 0.237,1.5495c0.062073,0.481262 0.131653,0.933807 0.138672,1.725311c0.00293,0.327789 -0.030396,0.622528 -0.080994,0.897003c-0.05072,0.275055 -0.128784,0.560974 -0.20697,0.878998c-0.089355,0.363281 -0.201294,0.78595 -0.378662,1.890686c-0.112549,0.701233 -0.203857,1.504761 -0.295532,2.395477c-0.099487,0.966614 -0.188171,2 -0.268494,3.088501c-0.083557,1.131836 -0.165039,2.296661 -0.269348,4.682678c-0.052368,1.198364 -0.084595,2.389282 -0.109497,3.563995c-0.024414,1.150604 -0.038208,2.269318 -0.046509,3.347992c-0.007935,1.03067 -0.010315,2.005341 -0.01062,3.754669c-0.000122,0.762512 -0.000732,1.460052 0.008972,2.107513c0.009155,0.612549 0.027039,1.205292 0.062988,1.792511c0.036621,0.597839 0.083862,1.221802 0.261353,2.599976c0.100891,0.783295 0.2323,1.617706 0.372009,2.488525c0.142883,0.890533 0.293945,1.78244 0.44397,2.659485c0.144592,0.845276 0.287048,1.640594 0.517334,3.018677c0.092102,0.551178 0.164551,1.011719 0.218994,1.390503c0.043884,0.305267 0.072693,0.546997 0.093018,0.73349l0.012329,0.140503l0.006348,0.103485" id="svg_8" stroke-linecap="null" stroke-linejoin="null" stroke-dasharray="null" stroke-width="5" stroke="#000000" fill="none"/>
  <path d="m149.285736,115.428589c0,1.800003 -0.064743,2.534225 -0.514496,3.328835c-0.237381,0.419388 -0.984467,1.505234 -1.479172,2.209831c-0.574463,0.818184 -1.232346,1.743904 -1.940994,2.795998c-0.781433,1.160141 -1.611649,2.441971 -2.462997,3.858002c-0.915146,1.522133 -2.787994,4.964653 -3.722839,6.884834c-0.976761,2.006256 -1.922638,4.106033 -2.851501,6.262497c-0.936951,2.175232 -1.83194,4.362976 -2.689499,6.532501c-0.836899,2.117279 -2.346115,6.124741 -3.008835,7.968338c-0.619461,1.723282 -1.177765,3.338669 -1.671005,4.852493c-0.458801,1.408112 -0.861435,2.723618 -1.202995,3.952499c-0.316338,1.138107 -0.800804,3.185242 -0.969666,4.102844c-0.155571,0.845383 -0.266373,1.627655 -0.342003,2.345993c-0.068909,0.654526 -0.10659,1.250458 -0.125999,1.787994c-0.017372,0.481186 -0.016823,1.284012 -0.018333,1.610336c-0.001312,0.284332 -0.003807,0.534988 -0.020996,0.759003c-0.015862,0.206726 -0.044891,0.404007 -0.093002,0.597c-0.050339,0.20192 -0.217613,0.651581 -0.328331,0.916c-0.123787,0.295654 -0.265968,0.618668 -0.408005,0.975006c-0.152901,0.383591 -0.306297,0.797562 -0.444,1.244995c-0.145439,0.47258 -0.382172,1.513458 -0.462334,2.078659c-0.08287,0.584274 -0.13459,1.184952 -0.170998,1.791c-0.03624,0.603348 -0.053513,1.197281 -0.062996,1.77301c-0.009048,0.549637 -0.008453,1.539001 -0.009171,1.96666c-0.000664,0.393677 -0.002518,0.769363 -0.010498,1.143005c-0.008286,0.387711 -0.023499,0.80542 -0.046501,1.268997c-0.026085,0.525772 -0.108673,1.827057 -0.164169,2.628662c-0.061737,0.891739 -0.131401,1.853333 -0.203995,2.865005c-0.074745,1.041672 -0.150314,2.093277 -0.222,3.134995c-0.069618,1.011612 -0.188644,2.864868 -0.231171,3.672501c-0.038559,0.732376 -0.066948,1.404922 -0.085495,2.032501c-0.017654,0.597443 -0.026878,1.179993 -0.031502,1.762497c-0.004745,0.597488 -0.004501,1.897507 -0.004501,2.625168c0,0.773666 0,1.579346 0,2.403c0,0.827667 0,1.64534 0,2.439011c0,0.755661 -0.001717,2.097 0.000504,2.659668c0.001968,0.498672 0.006416,0.949661 0.031494,1.367996c0.02417,0.403091 0.068726,0.806503 0.139503,1.223999c0.076637,0.452072 0.325409,1.512802 0.4925,2.149506c0.184593,0.7034 0.393791,1.455048 0.612,2.242493c0.223785,0.807556 0.450508,1.619324 0.666,2.422501c0.208427,0.776855 0.563934,2.196213 0.694168,2.815338c0.118584,0.563721 0.211136,1.093521 0.2985,1.6035c0.086975,0.50769 0.172951,1.031494 0.280495,1.585495c0.117401,0.604782 0.446396,2.027832 0.670502,2.873993c0.247375,0.934021 0.53199,1.935593 0.837006,2.992508c0.31691,1.098114 0.648254,2.219925 0.981003,3.352493c0.331238,1.127426 0.965851,3.306702 1.252991,4.332504c0.27272,0.974258 0.523407,1.899109 0.75,2.774994c0.213211,0.824188 0.404236,1.59903 0.570007,2.325012c0.153931,0.674103 0.395233,1.87413 0.480331,2.40033c0.077072,0.476578 0.132782,0.908234 0.17099,1.296005c0.033997,0.344986 0.053177,0.650558 0.063004,0.917999c0.008499,0.231247 0.009003,0.593994 0.009003,0.72966c0,0.109665 -0.000031,0.197327 0,0.266998c0.000168,0.320496 0.066498,1.068832 0.17067,1.751999c0.154495,1.013275 0.272415,1.659943 0.397324,2.395996c0.137787,0.811951 0.28569,1.687531 0.432007,2.615997c0.152481,0.967529 0.30452,1.962738 0.432007,2.976013c0.254349,2.021606 0.331573,3.013702 0.398666,3.985321c0.065781,0.952759 0.110199,1.889252 0.148499,2.809509c0.037674,0.90506 0.064835,1.796509 0.1035,2.6745c0.075821,1.72171 0.13501,2.566101 0.201324,3.397339c0.065079,0.815796 0.140106,1.612122 0.216003,2.386505c0.073471,0.749603 0.149902,1.470734 0.216003,2.161499c0.122055,1.275543 0.164948,1.857178 0.199997,2.406647c0.033508,0.525208 0.05867,1.034668 0.084,1.536011c0.02533,0.501343 0.075455,1.536682 0.166672,2.666656c0.049973,0.61908 0.185425,1.944061 0.258667,2.634674c0.074097,0.69873 0.150497,1.397217 0.222,2.088013c0.069809,0.67453 0.235657,2.5242 0.267334,3.067993c0.057526,0.987549 0.074661,1.863983 0.084,2.652008l0.001328,1.068817l0,0.964508l0,0.838501" id="svg_9" stroke-linecap="null" stroke-linejoin="null" stroke-dasharray="null" stroke-width="5" stroke="#000000" fill="none"/>
  <path d="m518.285767,110.428589c1,0 1.825928,0.029083 2.766663,0.283997c0.718567,0.194717 1.778564,0.474861 2.454834,0.93734c0.629089,0.430252 1.478455,0.831345 2.278442,1.278664c0.800049,0.44735 1.768494,0.565147 2.214722,1.216003c0.531006,0.774498 0.205872,1.833717 0.642456,2.588493c0.36615,0.632957 0.977966,1.351051 1.242859,2.014168c0.462646,1.158241 0.600891,1.931778 0.799988,2.746666c0.200928,0.822441 0.340454,1.618187 0.699829,2.548836c0.326538,0.845665 0.829102,1.702126 0.889526,2.560501c0.065979,0.937744 0.010681,1.825333 0.010681,2.625336c0,0.899994 -0.036255,1.839844 0.435974,2.610657c0.492737,0.804276 1.00708,1.416504 1.206848,2.05101c0.375671,1.19313 0.34552,2.017319 0.355835,2.768997c0.013062,0.95491 0.001343,1.96933 0.001343,2.869339c0,0.899994 0.182373,1.718353 0,2.614655c-0.170105,0.836044 -0.736511,1.334259 -1.149353,2.081345c-0.560608,1.014572 -0.759216,1.843979 -0.829834,2.641495c-0.048035,0.542877 -0.070496,1.215607 -0.103516,2.038498c-0.087891,2.190521 -0.139648,3.596451 -0.200012,5.197342c-0.066772,1.770782 -0.135803,3.686539 -0.196472,5.722488c-0.063538,2.130722 -0.122314,4.331497 -0.151489,6.577499c-0.058777,4.526428 -0.033936,6.760452 0,8.956009c0.033203,2.14978 0.088318,4.245438 0.151489,6.278992c0.060974,1.963776 0.132202,3.849289 0.196472,5.649002c0.118225,3.309265 0.16333,4.80629 0.198669,6.205338c0.033203,1.312958 0.058105,2.552017 0.084045,3.729004c0.024841,1.127014 0.047363,2.216156 0.083984,3.278992c0.072266,2.09639 0.134644,3.151154 0.200012,4.216003c0.065979,1.075165 0.141602,2.159988 0.215942,3.255005c0.075012,1.10498 0.15271,2.219681 0.216003,3.345001c0.128235,2.279419 0.166443,3.433533 0.198669,4.589325c0.032043,1.149567 0.051697,2.285309 0.064514,3.399002c0.012451,1.083633 0.017578,2.129333 0.019531,3.128998c0.003601,1.82933 0.001343,2.646835 0.001343,3.409332c0,0.722504 0,1.419998 0,2.107498c0,0.692505 0,1.404999 0,2.152512c0,1.659988 0,2.597321 0,3.598663c0,1.049332 0,2.130661 0,3.227997c0,1.097336 0,2.178665 0,3.227997c0,1.938675 0,2.800003 0,3.58934c0,0.725327 0,1.394669 0,2.015991c0,0.581345 0,1.130676 0,1.656006c0,1.010666 0,1.510162 0,2.006668c0,0.490494 0,0.972 0,1.441498c0,0.454498 0,0.891006 0,1.306503c0,0.755997 0,1.091156 0,1.397324c0,0.278168 0,0.529343 0,0.754501c0,0.200165 0,0.376343 0,0.52951c0,0.241333 0.001282,0.331696 -0.001343,0.403992c-0.002014,0.056381 -0.0047,0.100647 -0.019531,0.128998c-0.01178,0.022461 -0.035828,0.035339 -0.064514,0.039001c-0.080688,0.0103 -0.136475,0.000122 -0.199951,0.008011c-0.072388,0.009003 -0.153931,0.031204 -0.235535,0.077988c-0.094055,0.053909 -0.193115,0.137878 -0.280518,0.258011c-0.224304,0.308197 -0.305054,0.543304 -0.398621,0.807983c-0.107422,0.303833 -0.205322,0.65741 -0.300049,1.059021c-0.105896,0.448944 -0.206421,0.951538 -0.299988,1.509003c-0.214844,1.280243 -0.303284,2.014282 -0.402649,2.818665c-0.109619,0.887604 -0.220093,1.871826 -0.338989,2.963989c-0.131897,1.211823 -0.272766,2.556 -0.429016,4.044006c-0.362854,3.455963 -0.572205,5.439453 -0.796021,7.563995c-0.234558,2.226471 -0.475037,4.515808 -0.712463,6.829498c-0.23584,2.298309 -0.464539,4.542389 -0.66748,6.694489c-0.364624,3.866974 -0.495422,5.516235 -0.597351,6.977356c-0.090332,1.29425 -0.153809,2.445068 -0.193481,3.473999c-0.035767,0.928467 -0.052734,1.779297 -0.058533,2.573975c-0.011047,1.509308 -0.003174,2.264679 -0.00531,3.032013c-0.002197,0.781342 -0.007019,1.578705 -0.019531,2.394012c-0.012817,0.835358 -0.031006,1.692841 -0.064514,2.573975c-0.070129,1.84314 -0.13324,2.805878 -0.198669,3.786682c-0.065857,0.987183 -0.140137,1.968079 -0.216003,2.931c-0.073547,0.933105 -0.148071,1.823944 -0.215942,2.661011c-0.118713,1.463867 -0.164124,2.070068 -0.198669,2.593323c-0.029541,0.447083 -0.050781,0.825287 -0.064514,1.14151c-0.011353,0.261108 -0.017517,0.474304 -0.019531,0.646484c-0.00293,0.249329 -0.001282,0.339844 -0.001282,0.41333c0,0.059509 0,0.108002 0,0.148499c0,0.035522 0,0.069 0,0.103516c0,0.083984 -0.000793,0.140686 0.002625,0.217316c0.004761,0.106781 0.017212,0.25351 0.039001,0.450012c0.028442,0.256866 0.070679,0.583618 0.129028,0.98999c0.157166,1.094147 0.271301,1.794769 0.397339,2.584015c0.136597,0.855438 0.282654,1.754669 0.432007,2.675995c0.149292,0.921326 0.295898,1.820465 0.431946,2.675995c0.236938,1.490295 0.326538,2.086945 0.397339,2.582672c0.057617,0.40332 0.098694,0.723999 0.129028,0.97049l0.020325,0.181519l0.012329,0.125488l0.006348,0.078491" id="svg_10" stroke-linecap="null" stroke-linejoin="null" stroke-dasharray="null" stroke-width="5" stroke="#000000" fill="none"/>
  <path d="m22.285736,261.285736c0,0.886658 -0.003437,1.712097 0.072001,2.64267c0.036348,0.448364 0.26128,2.35733 0.370667,3.21817c0.125273,0.98584 0.268112,2.101044 0.407999,3.352509c0.155386,1.390137 0.30839,2.925842 0.444,4.612488c0.147943,1.839996 0.382803,6.007111 0.462334,8.334656c0.083708,2.449799 0.134558,4.976257 0.171,7.531494c0.036184,2.537079 0.053438,5.009338 0.063,7.369507c0.008919,2.201172 0.009636,5.938507 0.008835,7.393341c-0.00065,1.183838 -0.000616,2.125702 -0.0105,2.854492c-0.007389,0.544861 -0.013851,0.935822 -0.046501,1.198517c-0.020866,0.167877 -0.111286,0.323578 -0.164833,0.375488c-0.069748,0.067596 -0.158449,0.185516 -0.246,0.390015c-0.130184,0.304047 -0.260258,0.757629 -0.407999,1.379974c-0.193975,0.817108 -0.632544,3.178619 -0.888,4.771332c-0.297974,1.857758 -0.603762,3.963379 -0.912001,6.294006c-0.334602,2.529968 -0.660782,5.241302 -0.966,8.112c-0.319384,3.003937 -0.873304,9.33493 -1.093332,12.616669c-0.222839,3.323669 -0.398952,6.66687 -0.546001,10.002014c-0.14551,3.300232 -0.257164,6.541138 -0.348,9.695984c-0.087601,3.04248 -0.207088,8.687958 -0.249166,11.243835c-0.039032,2.370819 -0.066635,4.561646 -0.085501,6.577515c-0.017273,1.845795 -0.026653,3.526672 -0.0315,5.047485c-0.004353,1.365845 -0.004499,3.652496 -0.004499,4.584503c0,0.804016 0,1.492004 0,2.075989c0,0.492004 0,0.904022 0,1.248016c0,0.287994 0,0.743988 0,0.934845c0,0.175812 0,0.341644 0,0.502472c0,0.160858 0,0.326691 0,0.502502c0,0.190857 0,0.637512 0,0.901672c0,0.289185 0,0.598328 0,0.922516c0,0.334167 0,0.673309 0,1.012482c0,0.334167 0,0.967499 0,1.25885c0,0.279327 0,0.554657 0,0.833984c0,0.291351 0,0.602661 0,0.942017c0,0.375336 0,1.265991 0,1.794312c0,0.578339 0,1.196686 0,1.845001c0,0.668335 0,1.34668 0,2.025024c0,0.668335 0,1.934998 0,2.515656c0,0.544678 0,1.057343 0,1.541992c0,0.460663 0,0.901337 0,1.326019c0,0.412659 0,1.217987 0,1.618317c0,0.402344 0,0.808685 0,1.221008c0,0.420319 0,0.850647 0,1.292999c0,0.456329 0,1.419006 0,1.928497c0,0.526489 0,1.066986 0,1.6185c0,0.559509 0,1.123993 0,1.690491c0,0.565521 0,1.681519 0,2.226837c0,0.537323 0,1.068665 0,1.596008c0,0.52533 0,1.050659 0,1.578003c0,0.531342 0,1.613983 0,2.168152c0,0.559174 0,1.118347 0,1.672516c0,0.544159 0,1.073334 0,1.582489c0,0.484161 0,1.357513 0,1.737823c0,0.342346 0,0.648682 0,0.921021c0,0.240326 0,0.450653 0,0.632996c0,0.156342 -0.002281,0.399017 0.000668,0.490662c0.002632,0.081757 0.013395,0.16449 0.042,0.255005c0.035807,0.113312 0.099831,0.254028 0.185999,0.434998c0.110746,0.232574 0.436996,0.885529 0.657501,1.322998c0.255339,0.506592 0.542948,1.07016 0.8685,1.674011c0.345219,0.64032 0.716192,1.30069 1.120499,1.962006c0.407684,0.66684 1.280018,1.935181 1.746168,2.506653c0.451719,0.553802 0.924717,1.063873 1.403999,1.541992c0.46829,0.467133 0.947206,0.903717 1.422001,1.326019c0.466589,0.415009 1.38797,1.21582 1.830666,1.617493c0.434612,0.394348 0.85265,0.785614 1.254,1.168488c0.385937,0.368195 0.750015,0.723297 1.092001,1.060516c0.319304,0.31485 0.87571,0.871765 1.111666,1.106995c0.209412,0.20874 0.396099,0.394287 0.567001,0.556488c0.15456,0.146698 0.299475,0.278229 0.441,0.394501c0.135914,0.111664 0.422009,0.315063 0.577499,0.413513c0.160488,0.101624 0.327267,0.199524 0.4935,0.299988c0.164768,0.099579 0.325775,0.197388 0.475498,0.300018c0.142231,0.097504 0.381802,0.295441 0.466835,0.399811c0.077366,0.094971 0.13332,0.193726 0.171001,0.28952c0.034698,0.088226 0.360641,0.396088 0.987999,0.894653c0.62075,0.493317 1.434055,0.584351 2.183998,0.937347c0.77552,0.365051 1.550339,0.760956 2.384003,1.062653c0.704624,0.254974 1.627899,0.673309 2.615833,0.716003c0.855701,0.036987 1.752167,-0.000061 2.624165,0c0.912003,0.000092 1.774006,0.172791 2.562668,0.425323c0.710747,0.22757 1.753468,0.491241 2.579998,0.636017c0.613434,0.107452 2.004707,0.381134 2.610668,0.506653c0.662041,0.137146 1.367619,0.284576 2.105999,0.432007c0.757614,0.151276 1.522709,0.302063 2.286003,0.432007c1.461655,0.24881 2.790138,0.403412 3.406498,0.453674c0.590385,0.048157 1.717415,0.097656 2.263332,0.105316c1.627361,0.022888 2.181835,0.009003 3.304501,0.009003c0.560333,0 1.11467,0 2.189331,0c1.467003,0 1.90284,0 3.080338,0c0.726662,0 1.453339,-0.002869 2.629501,0.000153c0.867004,0.002228 1.778175,0.015991 2.2425,0.035858c0.932449,0.039886 2.294922,0.170532 3.139496,0.31665c0.773468,0.13382 1.427025,0.367523 2.557831,0.562012c0.603546,0.10379 1.328331,0.082184 1.848007,0.083984c1.469322,0.005127 2.455162,0.000671 3.595993,0.002686c1.270836,0.002228 2.646683,0.007111 4.102501,0.019501c1.510857,0.012848 3.051804,0.02951 4.597504,0.064484c3.006996,0.068054 4.422943,0.130585 5.774666,0.200012c1.294289,0.066498 2.536293,0.146637 3.732002,0.235504c1.156296,0.085938 2.278236,0.18103 3.371994,0.280487c2.128479,0.193542 3.171852,0.29834 4.198669,0.397339c1.002846,0.09668 1.97464,0.19101 2.908501,0.280487c0.888802,0.085144 1.72551,0.165405 2.503502,0.235504c1.350395,0.121674 1.911705,0.165649 2.400002,0.200012c0.422058,0.029724 0.785255,0.050964 1.096497,0.064484c0.266106,0.011566 0.494316,0.017517 0.691498,0.019501c0.329323,0.003296 0.474335,0.001343 0.609337,0.001343c0.125,0 0.239998,0 0.345001,0l0.095001,0l0.084999,0" id="svg_11" stroke-linecap="null" stroke-linejoin="null" stroke-dasharray="null" stroke-width="5" stroke="#000000" fill="none"/>
  <path d="m137.285736,300.285736c-1,0.020844 -1.04155,0.841431 -1.083328,1.3125c-0.059097,0.666321 -0.143967,1.564453 -0.258011,2.731506c-0.321472,3.289703 -0.543472,5.467896 -0.79599,7.957336c-0.277084,2.731567 -0.573975,5.636047 -0.883499,8.644501c-0.313141,3.043549 -0.624039,6.053162 -0.928513,8.959503c-0.547729,5.228302 -0.7845,7.426971 -0.993332,9.338654c-0.180023,1.64798 -0.337372,3.05481 -0.473999,4.2435c-0.114243,0.993958 -0.211685,1.815796 -0.293991,2.488495c-0.121231,0.990845 -0.17038,1.351685 -0.20134,1.641327c-0.024063,0.225128 -0.042786,0.395813 -0.025497,0.516022c0.011932,0.082947 0.052521,0.141113 0.109497,0.155975c0.156433,0.040833 0.271973,0.008392 0.405334,0.016022c0.159744,0.009125 0.349106,0.031738 0.568497,0.078003c0.256958,0.054169 0.552521,0.135406 0.883499,0.257996c0.813339,0.301239 1.281082,0.540497 1.802673,0.802673c0.574341,0.288696 1.191772,0.619263 1.855499,0.980988c0.711029,0.387512 1.463715,0.807281 2.260498,1.251007c1.718765,0.957184 2.636139,1.466827 3.581329,1.988007c0.958466,0.528503 1.918396,1.055176 2.866501,1.573486c0.922562,0.504333 1.807236,0.986481 2.64151,1.438507c1.461884,0.792084 2.069336,1.116364 2.594666,1.398651c0.453629,0.243744 0.845184,0.453857 1.180496,0.641998c0.292557,0.164154 0.550507,0.312592 0.775497,0.462006c0.418762,0.278076 0.612747,0.441803 0.813339,0.604004c0.203766,0.164764 0.407196,0.334747 0.619492,0.49649c0.213058,0.162323 0.429855,0.322113 0.664505,0.451508c0.469452,0.25885 0.734085,0.33374 0.998672,0.399994c0.266937,0.066864 0.54097,0.110443 0.815994,0.148499c0.274353,0.037964 0.547943,0.064545 0.815994,0.103516c0.518661,0.075409 0.765625,0.128571 1.231339,0.269989c0.682632,0.207306 1.871429,0.552338 2.667328,0.611328c0.774033,0.057373 1.821762,-0.082306 2.667679,0.037354c0.593338,0.083923 1.428131,0.455566 2.078995,0.681335c1.872406,0.649475 3.131012,1.090729 4.590668,1.59198c1.625916,0.55835 3.388565,1.155762 5.260498,1.766998c1.942673,0.634338 3.927765,1.27121 5.935501,1.857025c3.907562,1.140106 5.775223,1.589325 7.562668,1.986664c1.705902,0.379211 3.345535,0.691956 4.918503,0.947998c1.503281,0.24469 2.947205,0.441254 4.333496,0.587982c2.601013,0.275269 3.827744,0.343048 4.99733,0.406677c1.10881,0.060303 2.153214,0.096619 3.127502,0.109497c0.899109,0.011902 1.718857,0.009583 2.452499,-0.025513c1.19455,-0.057129 1.647919,-0.120972 2.010666,-0.197327c0.293472,-0.061768 0.526367,-0.140594 0.703506,-0.235504c0.151962,-0.081421 0.270538,-0.185852 0.388489,-0.280487c0.253571,-0.203461 0.420212,-0.306946 0.630676,-0.398682c0.252502,-0.110077 0.57132,-0.20813 0.959991,-0.299988c0.464478,-0.109772 1.021896,-0.210114 1.680008,-0.299988c1.65007,-0.225372 2.664276,-0.30426 3.783997,-0.398682c1.204941,-0.101593 2.474457,-0.193787 3.785995,-0.280487c1.331146,-0.088013 2.660446,-0.167969 3.966003,-0.235504c2.450272,-0.12677 3.556915,-0.166748 4.581329,-0.200012c0.950256,-0.030853 1.834641,-0.051483 2.661011,-0.064484c0.776291,-0.012207 1.510666,-0.017578 2.210999,-0.019501c1.330658,-0.003662 1.975327,-0.001343 2.608002,-0.001343c0.618668,0 1.221329,0 1.806,0c0.564667,0 1.10733,0 1.625992,0c0.957336,0 1.392502,0 1.798676,0c0.378159,0 0.729324,0 1.054489,0c0.300171,0 0.57634,0 0.829498,0c0.441345,0 0.6315,0 0.802673,0c0.153168,0 0.289337,0 0.4095,0c0.105164,0 0.196335,0 0.274506,0c0.121323,0 0.171341,0.000275 0.241333,-0.001343c0.320038,-0.007385 1.080002,-0.034607 1.699997,-0.055817c0.819992,-0.028076 3.179947,-0.11087 4.7715,-0.163849c1.860443,-0.06192 3.968872,-0.127838 6.304504,-0.182983c2.541382,-0.059998 5.267914,-0.107971 8.158508,-0.128998c3.033417,-0.022095 9.44577,0.020325 12.782166,0.097504c3.397003,0.078583 6.833679,0.197998 10.289978,0.343475c3.457062,0.145508 6.893677,0.317841 10.290009,0.505524c3.337006,0.184418 9.750214,0.583282 12.789154,0.786163c2.914398,0.19458 5.698395,0.390289 8.347504,0.578979c2.509247,0.178711 4.87323,0.350952 7.087494,0.507019c2.059082,0.145142 5.69223,0.385803 7.259003,0.471313c1.405273,0.076691 2.658875,0.132599 3.769501,0.171021c0.976379,0.033783 1.827972,0.053101 2.563507,0.062988c0.628479,0.008453 1.600494,0.009674 1.962006,0.00885c0.290497,-0.000671 0.519196,-0.000671 0.694489,-0.010529c0.131683,-0.007416 0.230377,-0.018616 0.298523,-0.046478c0.055969,-0.022888 0.145081,-0.109924 0.2005,-0.164185c0.064484,-0.063141 0.138519,-0.133087 0.224976,-0.203979c0.093445,-0.07663 0.197845,-0.152893 0.315002,-0.222015c0.122833,-0.072449 0.403015,-0.193756 0.566833,-0.231506c0.210754,-0.048553 0.517395,-0.076996 0.955505,-0.106476c0.611481,-0.041138 1.438629,-0.076904 2.521515,-0.124512c1.379761,-0.060638 5.194489,-0.223663 7.693146,-0.332672c2.850677,-0.124359 5.985229,-0.261261 9.335999,-0.397491c3.498566,-0.142242 7.077118,-0.279938 10.667999,-0.397491c3.534454,-0.115692 10.163879,-0.275116 13.138,-0.298187c2.737946,-0.02124 5.26413,-0.005981 7.60202,0.03302c2.174133,0.036255 4.208069,0.0961 6.125977,0.158997c1.826111,0.059875 5.297913,0.181122 6.985687,0.222168c1.653564,0.040192 3.259308,0.066925 4.802979,0.08548c1.467651,0.017639 2.845337,0.026703 4.119019,0.031525c1.15567,0.004395 3.057007,0.004486 3.779816,0.004486c0.579834,0 1.033691,0 1.37851,0c0.252838,0 0.430664,0 0.550507,0c0.078827,0 0.181549,0.00177 0.244324,-0.001343c0.120056,-0.005951 0.343933,-0.032745 0.718506,-0.083984c0.573242,-0.0784 1.3909,-0.20108 2.500488,-0.372009c1.449188,-0.223267 5.551758,-0.874512 8.27536,-1.313507c3.107086,-0.500793 6.500061,-1.052643 10.081482,-1.642487c3.674225,-0.605103 7.343445,-1.215576 10.909515,-1.82251c3.36853,-0.573303 9.120605,-1.586365 11.332001,-2.013489c1.776215,-0.343048 3.164032,-0.633057 4.21048,-0.888c0.765869,-0.186584 1.297028,-0.338684 1.636505,-0.473999c0.215027,-0.085693 0.436951,-0.228973 0.553162,-0.268005c0.152832,-0.051331 0.375061,-0.087555 0.681,-0.138c0.41333,-0.068146 0.957581,-0.150452 1.653015,-0.264008c0.869965,-0.142059 3.219482,-0.549225 4.730835,-0.8255c1.7034,-0.311371 3.548187,-0.658325 5.485504,-1.030487c1.98233,-0.380798 3.959442,-0.768127 5.8815,-1.156494c1.820557,-0.367859 4.956573,-1.030609 6.184326,-1.320343c1.01059,-0.238495 1.828949,-0.450714 2.479492,-0.652496c0.522644,-0.162079 0.937897,-0.319366 1.273499,-0.472504c0.2948,-0.134521 0.848907,-0.430847 1.169342,-0.582001c0.350128,-0.165161 0.728455,-0.329926 1.126495,-0.4935c0.407623,-0.167511 0.821411,-0.327484 1.234497,-0.475494c0.401642,-0.14389 1.152222,-0.381348 1.488861,-0.46701c0.306213,-0.077911 0.588257,-0.13504 0.845947,-0.181488c0.235046,-0.042358 0.45105,-0.074036 0.64801,-0.109497c0.181702,-0.032684 0.506226,-0.112946 0.64917,-0.17334c0.13855,-0.058533 0.266663,-0.132202 0.385498,-0.214508c0.117615,-0.081451 0.226746,-0.173065 0.331543,-0.268494c0.104614,-0.095276 0.304504,-0.295502 0.40448,-0.395508c0.099976,-0.100006 0.200012,-0.199982 0.299988,-0.299988c0.099976,-0.100006 0.200012,-0.200043 0.299988,-0.300018c0.100037,-0.100006 0.299805,-0.300232 0.400208,-0.399994c0.100891,-0.10025 0.203369,-0.200958 0.310486,-0.299988c0.109253,-0.101013 0.223999,-0.201691 0.346497,-0.300018c0.12677,-0.101746 0.408813,-0.301086 0.564148,-0.40033c0.161926,-0.103455 0.332886,-0.20639 0.504028,-0.320984c0.17627,-0.118011 0.353516,-0.245728 0.521973,-0.393005c0.173157,-0.151398 0.49231,-0.514771 0.631348,-0.728333c0.143982,-0.221161 0.270264,-0.461853 0.395996,-0.708008c0.126953,-0.248505 0.247375,-0.500397 0.377991,-0.743988c0.128174,-0.239075 0.407288,-0.677643 0.568665,-0.862518c0.156372,-0.179169 0.328918,-0.335846 0.504028,-0.481476c0.172363,-0.143372 0.350281,-0.274719 0.521973,-0.409515c0.169678,-0.13324 0.490479,-0.414429 0.631165,-0.573151c0.140747,-0.158752 0.266846,-0.32962 0.385498,-0.504028c0.117676,-0.172974 0.225586,-0.349182 0.331543,-0.521973c0.103394,-0.168549 0.302673,-0.487305 0.404297,-0.631165c0.097046,-0.137421 0.195435,-0.264526 0.28949,-0.385529c0.0896,-0.115326 0.176331,-0.224121 0.25354,-0.331482c0.073425,-0.102081 0.194214,-0.302887 0.235657,-0.404327c0.039795,-0.097443 0.066895,-0.195129 0.08551,-0.28952c0.017578,-0.089355 0.026672,-0.174561 0.031494,-0.253479c0.004395,-0.071777 0.004517,-0.190521 0.004517,-0.23584c0,-0.037323 0,-0.068665 0,-0.096008c0,-0.02533 0,-0.050659 0,-0.078003c0,-0.031342 0,-0.113983 0,-0.169006c0,-0.064972 0,-0.139984 0,-0.224976c0,-0.095001 0,-0.200012 0,-0.315002c0,-0.125 -0.000488,-0.404999 0.000122,-0.559509c0.000671,-0.161499 0.002258,-0.327087 0.010498,-0.4935c0.008118,-0.164612 0.020874,-0.324707 0.046509,-0.475494c0.024048,-0.141266 0.10199,-0.38147 0.164368,-0.46701c0.057312,-0.078644 0.133179,-0.137238 0.214478,-0.181488c0.082581,-0.044922 0.174683,-0.07605 0.268494,-0.109497c0.096863,-0.034546 0.297302,-0.115356 0.395325,-0.173187c0.100769,-0.059479 0.19696,-0.1297 0.28949,-0.203979c0.091125,-0.07312 0.175354,-0.148621 0.25354,-0.222015c0.072449,-0.067993 0.190491,-0.186005 0.235657,-0.231171c0.036133,-0.036163 0.064331,-0.064301 0.08551,-0.08548c0.015137,-0.015167 0.02533,-0.02533 0.031494,-0.031525l0.003174,-0.003143" id="svg_12" stroke-linecap="null" stroke-linejoin="null" stroke-dasharray="null" stroke-width="5" stroke="#000000" fill="none"/>
  <path d="m628.285767,312.285736c0,1.020844 0,1.978485 0,2.798676c0,0.901337 0,1.801331 0,2.722168c0,0.963165 0,1.653809 0,2.721985c0,0.857178 0,1.757172 0,2.642517c0,0.776306 0,1.576324 0,2.535645c0,1.037354 0.299683,1.833221 -0.221375,2.800354c-0.410522,0.761963 -0.778625,1.443817 -0.778625,2.129333c0,0.625336 0,1.394653 0,2.836823c0,0.565826 0,1.181671 0,2.583344c0,0.795837 0,1.661652 0,2.602478c0,2.126678 -0.000793,3.319672 0.001282,4.590668c0.002197,1.337006 0.007019,2.728027 0.019531,4.161011c0.012756,1.463043 0.029907,2.944122 0.064514,4.431c0.068542,2.944336 0.13208,4.378693 0.198669,5.779999c0.06488,1.365692 0.139893,2.692108 0.215942,3.976501c0.073364,1.239594 0.150024,2.430847 0.216003,3.571503c0.122375,2.115723 0.164795,3.086914 0.200012,4.003998c0.033325,0.868927 0.058167,1.696014 0.084045,2.487c0.024902,0.760986 0.047241,1.49823 0.083984,2.21701c0.072083,1.408569 0.13324,2.10788 0.201294,2.803986c0.067566,0.690918 0.147217,1.372467 0.235535,2.041504c0.086426,0.654968 0.179321,1.291687 0.280518,1.906494c0.190491,1.157379 0.297729,1.692169 0.397278,2.20401c0.09613,0.494141 0.193115,0.975525 0.280518,1.451996c0.08728,0.475586 0.171509,0.95694 0.235535,1.451996c0.135254,1.04599 0.168274,1.612091 0.199951,2.202667c0.032837,0.612091 0.051941,1.242615 0.064514,1.886993c0.012756,0.654327 0.017578,1.314667 0.019531,1.97702c0.003845,1.314667 0.000427,1.959808 0.002625,2.595978c0.002136,0.628174 0.006836,1.24942 0.019531,1.864502c0.012634,0.610229 0.030029,1.216675 0.064514,1.819519c0.068787,1.202118 0.132446,1.800873 0.198669,2.394653c0.065186,0.584564 0.139526,1.153595 0.215942,1.702515c0.072998,0.524414 0.147705,1.01825 0.216003,1.477478c0.117981,0.793243 0.177734,1.11734 0.226868,1.636353c0.082153,0.867615 -0.449402,1.819855 -0.798828,2.427673c-0.219666,0.382141 -0.713989,1.330048 -0.976013,1.903992c-0.289795,0.634766 -0.603638,1.336853 -1.167969,2.992004c-0.317627,0.93158 -0.604492,1.938049 -0.891052,2.992493c-0.294983,1.08551 -0.571899,2.193909 -0.836975,3.307495c-0.262207,1.10144 -0.510071,2.178131 -0.93866,4.200012c-0.194153,0.915985 -0.366394,1.773712 -0.514526,2.584503c-0.140991,0.771942 -0.262939,1.518738 -0.361511,2.251495c-0.097778,0.726959 -0.187561,1.461304 -0.290649,2.997314c-0.054871,0.817749 -0.0849,1.666565 -0.109497,2.535004c-0.024841,0.878235 -0.038269,1.756653 -0.046509,2.625c-0.008057,0.848297 -0.010315,1.666687 -0.01062,3.17334c-0.000122,0.67218 -0.00061,1.297363 0.008972,1.888489c0.009216,0.570251 0.027344,1.13266 0.062988,1.699524c0.036865,0.58551 0.083923,1.203156 0.261353,2.578644c0.101074,0.783478 0.232422,1.619263 0.376465,2.493011c0.147888,0.896942 0.307678,1.799316 0.475525,2.69101c0.163208,0.866943 0.316406,1.694092 0.64801,3.149323c0.13855,0.608032 0.276001,1.133118 0.404968,1.58551c0.111633,0.39151 0.305115,0.7034 0.595032,1.91449c0.186279,0.778107 0.637939,1.646301 0.130676,2.553345c-0.391235,0.699554 -1.505676,0.440491 -2.50885,0.446808c-0.844543,0.005341 -1.226196,0.016296 -2.192993,0.057007c-0.603638,0.025421 -2.095642,0.107941 -2.997314,0.164337c-0.992981,0.062103 -2.0578,0.133942 -3.175537,0.214508c-1.151917,0.083038 -2.318848,0.172211 -3.481506,0.268494c-1.140015,0.094421 -3.274841,0.291901 -4.235474,0.395325c-0.88739,0.09552 -1.706177,0.194122 -2.463013,0.28952c-0.701172,0.088379 -1.351868,0.17572 -1.958984,0.253479c-0.568909,0.072845 -1.616699,0.194 -2.108154,0.23584c-0.477905,0.04071 -0.950317,0.069885 -1.423523,0.096008c-0.481079,0.02655 -0.977783,0.04364 -2.042664,0.109344c-1.2099,0.074646 -1.884033,0.135559 -2.605347,0.201324c-0.765686,0.069794 -1.572083,0.149963 -2.416504,0.235504c-0.879578,0.089081 -1.790955,0.184296 -2.731506,0.280487c-1.955872,0.200012 -2.967102,0.299438 -4.00531,0.399994c-1.072083,0.103821 -2.185364,0.209473 -3.346497,0.319519c-1.216187,0.115265 -2.494385,0.235748 -3.841492,0.364502c-2.929504,0.280029 -4.521118,0.43634 -6.184021,0.597321c-1.714783,0.166016 -3.462463,0.334229 -5.224487,0.49649c-1.756653,0.161743 -3.489075,0.31839 -5.179504,0.451508c-3.173645,0.249878 -4.628296,0.333221 -6.006653,0.398682c-1.325745,0.062958 -2.623901,0.103821 -3.91803,0.128998c-1.313904,0.025574 -2.671997,0.035217 -4.097961,0.039001c-3.152039,0.008331 -4.917053,0.002655 -6.792053,0.002655c-1.954956,0 -3.959961,0 -5.984985,0c-2.015015,0 -3.98999,0 -5.89502,0c-3.47998,0 -5.001465,0 -6.371948,0c-1.228516,0 -2.324036,0 -3.295532,0c-0.856506,0 -1.606995,0 -2.260498,0c-1.052002,0 -1.472351,0 -1.854675,0c-0.376343,0 -0.778625,0 -1.238953,0c-0.550354,0 -1.222717,0 -2.049011,0c-2.242676,0 -3.719025,0.002472 -5.453339,-0.005341c-2.000366,-0.009033 -4.274811,-0.030426 -6.831024,-0.078003c-2.846466,-0.052979 -5.99118,-0.130188 -9.440979,-0.257996c-7.85202,-0.290894 -12.257263,-0.536774 -16.940002,-0.797333c-4.907623,-0.273071 -9.985535,-0.581024 -15.181519,-0.902985c-5.261353,-0.326019 -10.53418,-0.664276 -15.766479,-0.993011c-10.129059,-0.636383 -14.926666,-0.925385 -19.509338,-1.191986c-4.352325,-0.253204 -8.459839,-0.482697 -12.307495,-0.690002c-3.572388,-0.192474 -6.854858,-0.363251 -9.83252,-0.51001c-4.979706,-0.245422 -6.960052,-0.332428 -8.621338,-0.402679c-1.373077,-0.058075 -2.489258,-0.10083 -3.379486,-0.128998c-0.695099,-0.022003 -1.226288,-0.034821 -1.624512,-0.039001c-0.521301,-0.005493 -0.708527,-0.003723 -0.898651,0c-0.236206,0.004608 -0.561371,0.017883 -1.018494,0.039001c-0.632233,0.029236 -1.48233,0.072388 -2.593506,0.128998c-3.177368,0.161896 -5.315521,0.274933 -7.804016,0.394684c-2.798126,0.134644 -5.866364,0.272247 -9.164978,0.393005c-3.488037,0.127686 -7.126251,0.244873 -10.875,0.302979c-7.666107,0.118835 -11.508636,0.070099 -15.320007,-0.003998c-3.762024,-0.073151 -7.45401,-0.196777 -11.054993,-0.361481c-3.492371,-0.159729 -6.854858,-0.349182 -10.065002,-0.586517c-5.896454,-0.435944 -8.541138,-0.717224 -10.984009,-0.992004c-2.25174,-0.253265 -4.316132,-0.521851 -6.200989,-0.796478c-1.717712,-0.250275 -3.272125,-0.502747 -4.671021,-0.751495c-2.373199,-0.421997 -3.357727,-0.624146 -4.223999,-0.797363c-0.757019,-0.151367 -1.413574,-0.288208 -1.97998,-0.409485c-0.486877,-0.104218 -0.903076,-0.197601 -1.26001,-0.274506c-0.572876,-0.123413 -0.817383,-0.176605 -1.093323,-0.194672c-0.364349,-0.023865 -0.880432,0.000183 -1.605011,0.052521c-0.995667,0.071899 -2.320313,0.198395 -4.035004,0.367493c-4.840912,0.477417 -8.062531,0.817719 -11.782654,1.190674c-4.143494,0.415405 -8.637817,0.857147 -13.411499,1.29599c-4.976974,0.45755 -10.085526,0.911865 -15.256516,1.29599c-10.218719,0.759094 -15.138443,0.995239 -19.875992,1.192017c-4.535904,0.188385 -8.853058,0.308899 -12.930008,0.386993c-3.816452,0.07309 -7.353302,0.105133 -10.589996,0.117004c-5.493301,0.020142 -7.718506,0.007996 -9.61467,0.007996c-1.59816,0 -2.929321,0 -4.02449,0c-0.890167,0 -1.606339,0 -2.179504,0c-0.841339,0 -1.168839,-0.000946 -1.461334,0.001343c-0.272522,0.002136 -0.54007,0.007477 -0.817505,0.019501c-0.302582,0.013123 -0.645111,0.034576 -1.042496,0.064484c-1.020355,0.076843 -1.668854,0.135895 -2.41066,0.200012c-0.827866,0.071533 -1.73465,0.15097 -2.713501,0.235504c-1.043808,0.090149 -2.145569,0.184937 -3.298508,0.280487c-2.430435,0.201385 -3.693726,0.299805 -4.975998,0.397339c-1.29007,0.098145 -2.577225,0.192291 -3.850494,0.280487c-1.248062,0.086426 -2.460129,0.167358 -3.625504,0.235504c-2.144958,0.125458 -3.106064,0.166626 -3.992004,0.200012c-0.815735,0.030731 -1.56662,0.051392 -2.257492,0.064484c-0.635803,0.012054 -1.221664,0.017548 -1.762512,0.019501c-0.96666,0.003479 -1.401825,0.001343 -1.807999,0.001343c-0.378159,0 -0.729324,0 -1.054489,0c-0.300171,0 -0.57634,0 -0.829498,0c-0.441345,0 -0.632339,0 -0.809341,0c-0.168991,0 -0.335999,0 -0.507004,0c-0.181,0 -0.377991,0 -0.597,0c-0.528,0 -0.846832,0 -1.198654,0c-0.377838,0 -0.774673,0 -1.183502,0c-0.413834,0 -0.825668,0 -1.2285,0c-0.750671,0 -1.086166,0 -1.394669,0c-0.2845,0 -0.548004,0 -0.793503,0c-0.230499,0 -0.449005,0 -0.658493,0c-0.404007,0 -0.604004,0 -0.804001,0c-0.200012,0 -0.400009,0 -0.600006,0c-0.199997,0 -0.399994,0 -0.600006,0c-0.399994,0 -0.600159,0 -0.801331,0c-0.203171,0 -0.409332,0 -0.619492,0c-0.215164,0 -0.43634,0 -0.664505,0c-0.481339,0 -0.73584,0 -0.99733,0c-0.265503,0 -0.531998,0 -0.796509,0c-0.259491,0 -0.511002,0 -0.751495,0c-0.436005,0 -0.626663,0 -0.801331,0c-0.162674,0 -0.317337,0 -0.468002,0c-0.150665,0 -0.305328,0 -0.468002,0c-0.365326,0 -0.574829,0 -0.801331,0c-0.240494,0 -0.492004,0 -0.751495,0c-0.264511,0 -0.531006,0 -0.796509,0c-0.515991,0 -0.761322,0 -0.998665,0c-0.231331,0 -0.458664,0 -0.683998,0c-0.225334,0 -0.452667,0 -0.683998,0c-0.482666,0 -0.737335,0 -1,0c-0.268669,0 -0.541336,0 -0.816002,0c-0.274666,0 -0.547333,0 -0.816002,0c-0.517334,0 -0.762665,0 -1,0c-0.231331,0 -0.458664,0 -0.683998,0c-0.225334,0 -0.452667,0 -0.683998,0c-0.482666,0 -0.737167,0 -0.998665,0c-0.265503,0 -0.532005,0 -0.796501,0c-0.259506,0 -0.511002,0 -0.751503,0c-0.435997,0 -0.626335,0 -0.798668,0c-0.156334,0 -0.298668,0 -0.429001,0l-0.120331,0l-0.112335,0l-0.106331,0" id="svg_13" stroke-linecap="null" stroke-linejoin="null" stroke-dasharray="null" stroke-width="5" stroke="#000000" fill="none"/>
  <line checkpoint checkpointId="1" stroke="#000000" id="svg_14" y2="470.285739" x2="328.285736" y1="356.285737" x1="326.285736" stroke-linecap="null" stroke-linejoin="null" stroke-dasharray="null" stroke-width="5" fill="none"/>
  <line checkpoint checkpointId="3" id="svg_15" y2="123.428589" x2="316.285736" y1="14.428589" x1="313.285736" stroke-linecap="null" stroke-linejoin="null" stroke-dasharray="null" stroke-width="5" stroke="#000000" fill="none"/>
  <line checkpoint checkpointId="4" id="svg_16" y2="220.428589" x2="139.285736" y1="223.428589" x1="11.285736" stroke-linecap="null" stroke-linejoin="null" stroke-dasharray="null" stroke-width="5" stroke="#000000" fill="none"/>
  <line checkpoint checkpointId="2" id="svg_17" y2="229.428589" x2="634.285736" y1="230.428589" x1="519.285736" stroke-linecap="null" stroke-linejoin="null" stroke-dasharray="null" stroke-width="5" stroke="#000000" fill="none"/>
  <text xml:space="preserve" text-anchor="middle" font-family="serif" font-size="24" id="svg_21" y="344.571442" x="326.285736" stroke-linecap="null" stroke-linejoin="null" stroke-dasharray="null" stroke-width="0" stroke="#000000" fill="#000000">start/finish</text>
    <ellipse  carstartpos ry="5" rx="11" id="svg_22" cy="434.000031" cx="291.285736" stroke-linecap="null" stroke-linejoin="null" stroke-dasharray="null" stroke-width="5" stroke="#000000" fill="none"/>
    <ellipse  carstartpos id="svg_24" ry="5" rx="11" cy="391.928574" cx="249.928572" stroke-linecap="null" stroke-linejoin="null" stroke-dasharray="null" stroke-width="5" stroke="#000000" fill="none"/>
    <ellipse  carstartpos id="svg_25" ry="5" rx="11" cy="435.928574" cx="206.928572" stroke-linecap="null" stroke-linejoin="null" stroke-dasharray="null" stroke-width="5" stroke="#000000" fill="none"/>
    <ellipse  carstartpos id="svg_26" ry="5" rx="11" cy="389.928574" cx="169.928572" stroke-linecap="null" stroke-linejoin="null" stroke-dasharray="null" stroke-width="5" stroke="#000000" fill="none"/>
  </g>
</svg>